<svg width="30" height="30" viewBox="0 0 30 30" fill="none">
    <path d="M15.0001 4.8913C15.3588 4.8913 15.6522 4.59782 15.6522 4.23913V3.91304C15.6522 3.55434 15.3588 3.26086 15.0001 3.26086C14.6414 3.26086 14.3479 3.55434 14.3479 3.91304V4.23913C14.3479 4.59782 14.6414 4.8913 15.0001 4.8913Z"
          fill="white"></path>
    <path d="M15.0001 25.1086C14.6414 25.1086 14.3479 25.4021 14.3479 25.7608V26.0869C14.3479 26.4456 14.6414 26.7391 15.0001 26.7391C15.3588 26.7391 15.6522 26.4456 15.6522 26.0869V25.7608C15.6522 25.4021 15.3588 25.1086 15.0001 25.1086Z"
          fill="white"></path>
    <path d="M4.23925 14.3478H3.91316C3.55446 14.3478 3.26099 14.6413 3.26099 15C3.26099 15.3586 3.55446 15.6521 3.91316 15.6521H4.23925C4.59794 15.6521 4.89142 15.3586 4.89142 15C4.89142 14.6413 4.59794 14.3478 4.23925 14.3478Z"
          fill="white"></path>
    <path d="M26.0869 14.3478H25.7608C25.4021 14.3478 25.1086 14.6413 25.1086 15C25.1086 15.3586 25.4021 15.6521 25.7608 15.6521H26.0869C26.4456 15.6521 26.7391 15.3586 26.7391 15C26.7391 14.6413 26.4456 14.3478 26.0869 14.3478Z"
          fill="white"></path>
    <path d="M7.63042 6.71738C7.36955 6.45651 6.97825 6.45651 6.71738 6.71738C6.45651 6.97825 6.45651 7.36955 6.71738 7.63042L6.94564 7.85868C7.07608 7.98912 7.23912 8.05434 7.40216 8.05434C7.56521 8.05434 7.72825 7.98912 7.85869 7.85868C8.11955 7.59782 8.11955 7.20651 7.85869 6.94564L7.63042 6.71738Z"
          fill="white"></path>
    <path d="M6.94564 22.1413L6.71738 22.3696C6.45651 22.6305 6.45651 23.0218 6.71738 23.2826C6.84782 23.4131 7.01086 23.4783 7.1739 23.4783C7.33695 23.4783 7.49999 23.4131 7.63042 23.2826L7.85869 23.0544C8.11955 22.7935 8.11955 22.4022 7.85869 22.1413C7.59782 21.8805 7.20651 21.8805 6.94564 22.1413Z"
          fill="white"></path>
    <path d="M22.3695 6.71738L22.1412 6.94564C21.8803 7.20651 21.8803 7.59782 22.1412 7.85868C22.2716 7.98912 22.4347 8.05434 22.5977 8.05434C22.7608 8.05434 22.9238 7.98912 23.0543 7.85868L23.2825 7.63042C23.5434 7.36955 23.5434 6.97825 23.2825 6.71738C23.0216 6.45651 22.6303 6.45651 22.3695 6.71738Z"
          fill="white"></path>
    <path d="M15.6522 14.7392V8.8044C15.6522 8.4457 15.3588 8.15222 15.0001 8.15222C14.6414 8.15222 14.3479 8.4457 14.3479 8.8044V15C14.3479 15.1631 14.4131 15.3261 14.5436 15.4566L21.6849 22.5979C21.8153 22.7283 21.9783 22.7935 22.1414 22.7935C22.3044 22.7935 22.4675 22.7283 22.5979 22.5979C22.8588 22.337 22.8588 21.9457 22.5979 21.6848L15.6522 14.7392Z"
          fill="white"></path>
    <path d="M15 0C6.71739 0 0 6.71739 0 15C0 23.2826 6.71739 30 15 30C23.2826 30 30 23.2826 30 15C30 6.71739 23.2826 0 15 0ZM15 28.6957C7.43478 28.6957 1.30435 22.5652 1.30435 15C1.30435 7.43478 7.43478 1.30435 15 1.30435C22.5652 1.30435 28.6957 7.43478 28.6957 15C28.6957 22.5652 22.5652 28.6957 15 28.6957Z"
          fill="white"></path>
</svg>