<svg className="ml-2 inline-block w-14" width="56" height="19" viewBox="0 0 75 26" fill="none">
    <path
            d="M41.6592 11.5066H68.0338C69.8807 11.5066 71.6519 10.913 72.9583 9.85629C74.2646 8.79957 74.999 7.36623 75 5.87138C75 4.37597 74.2661 2.94181 72.9596 1.8844C71.6532 0.826989 69.8814 0.232941 68.0338 0.232941H41.6592C39.8117 0.232941 38.0398 0.826989 36.7334 1.8844C35.427 2.94181 34.693 4.37597 34.693 5.87138C34.6941 7.36623 35.4285 8.79957 36.7348 9.85629C38.0411 10.913 39.8124 11.5066 41.6592 11.5066ZM6.9662 25.866H37.2832C39.13 25.866 40.9013 25.2724 42.2076 24.2156C43.5139 23.1589 44.2483 21.7256 44.2494 20.2307C44.2494 18.7353 43.5154 17.3012 42.209 16.2438C40.9026 15.1863 39.1307 14.5923 37.2832 14.5923H6.9662C5.11865 14.5923 3.34677 15.1863 2.04035 16.2438C0.733937 17.3012 0 18.7353 0 20.2307H0C0.0010452 21.7256 0.735443 23.1589 2.04175 24.2156C3.34805 25.2724 5.11933 25.866 6.9662 25.866ZM4.10403 11.3024H7.17909V2.20815H11.1609V0H0.122214V2.20177H4.10403V11.3024ZM15.1821 11.3024H18.2572V2.63255H18.2966L21.8448 11.296H24.2102L27.8766 2.63255H27.9161V11.296H30.9911V0H26.3194L23.0866 7.37113H23.0472L19.8342 0H15.1821V11.3024ZM60.0938 17.7641C59.6826 17.07 59.0715 16.4659 58.3119 16.0027C57.5238 15.5362 56.6284 15.2021 55.6784 15.0199C54.6378 14.8095 53.5694 14.7023 52.4968 14.7008H47.8843V25.9968H52.9108C53.9205 26.0008 54.9248 25.8769 55.8873 25.6298C56.796 25.406 57.6451 25.0467 58.3907 24.5704C59.116 24.094 59.704 23.495 60.1135 22.8154C60.5563 22.0603 60.7763 21.2323 60.7561 20.3967C60.7883 19.4896 60.5616 18.5888 60.0938 17.7641ZM57.1646 21.89C56.934 22.3158 56.5764 22.6886 56.1238 22.975C55.6535 23.2548 55.1165 23.4525 54.5469 23.5557C53.9005 23.6762 53.239 23.7351 52.5757 23.7312H50.979V17.0302H52.7925C53.4148 17.0277 54.0344 17.0954 54.6336 17.2312C55.1849 17.3515 55.7036 17.5539 56.1633 17.8279C56.5847 18.0964 56.9268 18.4376 57.1646 18.8267C57.4355 19.2754 57.5706 19.7698 57.5589 20.269C57.5762 20.8262 57.4416 21.3797 57.1646 21.89ZM74.7595 21.8486C74.6203 21.54 74.4088 21.2562 74.1366 21.0125C73.8658 20.7702 73.5425 20.5701 73.1826 20.4222C72.79 20.2618 72.368 20.154 71.9328 20.1031V20.0712C72.609 19.914 73.2143 19.6014 73.6754 19.1713C74.1298 18.723 74.3654 18.1553 74.3377 17.5758C74.3672 17.0562 74.2097 16.5407 73.8843 16.092C73.5873 15.7263 73.1804 15.4276 72.7016 15.2241C72.1865 15.0088 71.6287 14.8684 71.0537 14.8093C70.4504 14.7395 69.8417 14.7043 69.2323 14.704H64.0283V26H69.7448C70.3703 26.0003 70.9941 25.9468 71.6056 25.8405C72.201 25.744 72.7716 25.5659 73.2929 25.3139C73.7863 25.0757 74.2047 24.748 74.5151 24.3567C74.8475 23.9062 75.0118 23.3876 74.9882 22.8633C74.9888 22.5174 74.9154 22.1741 74.7713 21.8486H74.7595ZM67.1034 16.8228H69.1929C69.4377 16.8236 69.6818 16.8428 69.9222 16.8802C70.1553 16.9142 70.3811 16.9754 70.5924 17.0621C70.7872 17.1481 70.9525 17.272 71.0734 17.4227C71.2065 17.5967 71.2724 17.7989 71.2626 18.0034C71.2684 18.2035 71.21 18.4014 71.0931 18.5778C70.9868 18.7327 70.8352 18.8642 70.6516 18.9607C70.4604 19.0587 70.2496 19.1289 70.0286 19.1681C69.8 19.2117 69.5658 19.2332 69.3308 19.232H67.1034V16.8228ZM71.7239 23.2047C71.6053 23.3712 71.4407 23.5132 71.2429 23.6195C71.0425 23.7287 70.8174 23.8046 70.5806 23.8429C70.3451 23.8858 70.1044 23.9073 69.8631 23.9067H67.1034V21.3539H69.4294C69.6932 21.356 69.9566 21.372 70.2179 21.4018C70.4953 21.4327 70.7668 21.4916 71.0261 21.5773C71.2678 21.6592 71.4806 21.7887 71.645 21.9539C71.8166 22.1369 71.9044 22.3625 71.8934 22.592C71.906 22.8049 71.8475 23.0166 71.7239 23.2047Z"
            fill="url(#paint0_linear)"></path>
    <defs>
        <linearGradient id="paint0_linear" x1="0" y1="13.0064" x2="75" y2="13.0064"
                        gradientUnits="userSpaceOnUse">
            <stop stop-color="#90CEA1"></stop>
            <stop offset="0.56" stop-color="#3CBEC9"></stop>
            <stop offset="1" stop-color="#00B3E5"></stop>
        </linearGradient>
    </defs>
</svg>
