<svg width="30" height="30" viewBox="0 0 30 30" fill="none">
    <path d="M6.29404 8.23423C6.39448 8.33894 6.43872 8.48544 6.41305 8.62824L5.96753 11.3284C5.87167 11.8731 6.09733 12.4244 6.54759 12.7455C6.96575 13.0459 7.51944 13.0788 7.97017 12.83L10.3358 11.5384C10.4382 11.4811 10.563 11.4811 10.6653 11.5384L13.0315 12.8315C13.4824 13.0799 14.0359 13.047 14.4541 12.747C14.9044 12.4259 15.13 11.8746 15.0341 11.3299L14.5886 8.62971C14.5625 8.48679 14.607 8.34 14.7081 8.23569L16.5862 6.33208C16.9705 5.94112 17.1015 5.36692 16.9247 4.84798C16.7665 4.34784 16.3392 3.98008 15.8212 3.89793L13.201 3.50392C13.0752 3.48171 12.9686 3.39827 12.9169 3.28142L11.7378 0.797751C11.5179 0.312034 11.034 0 10.5008 0C9.96766 0 9.48376 0.312034 9.26378 0.797693L8.08321 3.28136C8.03153 3.39821 7.925 3.48165 7.79919 3.50386L5.18045 3.89793C4.66238 3.98008 4.23515 4.3479 4.07687 4.84798C3.89991 5.36704 4.03093 5.94153 4.41539 6.33255L6.29404 8.23423ZM5.02546 5.16153C5.06665 5.01996 5.18473 4.91407 5.32999 4.88853L7.95066 4.49299C8.40538 4.42115 8.79447 4.12781 8.98872 3.71042L10.1693 1.22376C10.2237 1.08722 10.3558 0.997628 10.5028 0.997628C10.6499 0.997628 10.7819 1.08722 10.8364 1.22376L12.0169 3.71042C12.2104 4.1267 12.5978 4.41986 13.051 4.49299L15.6697 4.88853C15.8149 4.91407 15.933 5.01996 15.9742 5.16153C16.0313 5.3235 15.9926 5.50374 15.8742 5.62809L13.9961 7.5317C13.6713 7.86442 13.5247 8.3322 13.6015 8.79079L14.0471 11.491C14.0806 11.6583 14.0136 11.8297 13.8755 11.93C13.7694 12.0096 13.6261 12.0185 13.511 11.9525L11.1448 10.6589C10.7436 10.4392 10.258 10.4392 9.85673 10.6589L7.49061 11.954C7.37552 12.0199 7.23219 12.0111 7.12607 11.9315C6.98802 11.8312 6.92104 11.6597 6.95456 11.4924L7.40008 8.79226C7.47696 8.33367 7.33034 7.86588 7.00554 7.53316L5.12689 5.62803C5.00799 5.50404 4.96879 5.32373 5.02546 5.16153Z"
          fill="white"></path>
    <path d="M20.4016 6.15664C20.413 6.17059 20.4176 6.18893 20.414 6.20662L20.154 7.78226C20.0845 8.17862 20.2492 8.5796 20.5771 8.81282C20.8858 9.03421 21.2943 9.05852 21.6271 8.87535L22.9992 8.12078L24.3793 8.87535C24.7121 9.05852 25.1206 9.03421 25.4294 8.81282C25.7573 8.57984 25.9218 8.17891 25.8519 7.78273L25.5924 6.20662C25.5888 6.18899 25.5932 6.1707 25.6044 6.15664L26.702 5.04809C26.9815 4.76342 27.0763 4.34538 26.947 3.96801C26.8292 3.60283 26.5156 3.33527 26.1364 3.27644L24.6019 3.03191L23.9133 1.58179C23.7508 1.22522 23.3951 0.996338 23.0033 0.996338C22.6114 0.996338 22.2557 1.22516 22.0932 1.58179L21.3946 3.04791L19.8675 3.2789C19.4887 3.33715 19.1749 3.60388 19.0565 3.96842C18.9271 4.34562 19.022 4.76354 19.3014 5.04797L20.4016 6.15664ZM20.0165 4.26498L21.5441 4.03446C21.878 3.98225 22.1639 3.7672 22.3066 3.4609L23.0017 1.99778C23.0057 2.0017 23.0088 2.00651 23.0107 2.01178L23.6997 3.4619C23.8424 3.76807 24.1281 3.98313 24.4618 4.03546L25.9894 4.26545V4.34497L24.8924 5.4561C24.657 5.69811 24.5508 6.03769 24.6064 6.37064L24.8664 7.94675C24.8698 7.96409 24.8662 7.98208 24.8563 7.99673L23.4772 7.24316C23.1813 7.08102 22.8231 7.08102 22.5272 7.24316L21.1566 7.9982C21.1566 7.9982 21.1311 7.98817 21.1386 7.94469L21.3986 6.36859C21.454 6.03534 21.3473 5.69559 21.1111 5.45405L20.0155 4.34397L19.6594 4.69398L20.0165 4.26498Z"
          fill="white"></path>
    <path d="M0.500287 28.9998C0.613849 28.9998 0.724072 28.9612 0.812789 28.8903C0.915804 28.8078 3.34597 26.8611 4.35403 25.8531C8.25683 21.9493 11.151 21.4993 12.9887 21.4993C13.6823 21.4952 14.3552 21.7361 14.8888 22.1793C15.1507 22.3899 15.4778 22.5031 15.8139 22.4993H20.9068C21.4603 22.4841 21.9317 22.8985 21.9878 23.4493C22.0015 23.7231 21.9023 23.9906 21.7132 24.189C21.5241 24.3876 21.2619 24.4997 20.9877 24.4994H15.4873C15.2112 24.4994 14.9873 24.7233 14.9873 24.9994C14.9873 25.2756 15.2112 25.4994 15.4873 25.4994H20.9877C21.536 25.4993 22.0603 25.2742 22.4378 24.8766C22.8153 24.479 23.0131 23.9438 22.9849 23.3963C22.9849 23.3893 22.9819 23.3833 22.9819 23.3763L27.3322 19.7326C27.5372 19.5608 27.8022 19.4777 28.0686 19.5015C28.335 19.5254 28.581 19.6542 28.7523 19.8596C29.081 20.2596 29.0582 20.8422 28.6993 21.2152L22.4598 27.5657C22.2036 27.8294 21.8561 27.9848 21.4887 27.9998H12.4557C11.7531 27.9993 11.0571 28.1341 10.4055 28.3968L8.81591 29.0358C8.5596 29.1388 8.43537 29.4301 8.53839 29.6864C8.6414 29.9427 8.93264 30.0669 9.18894 29.9639L10.7785 29.3244C11.3116 29.1099 11.881 28.9997 12.4557 28.9998H21.5018C22.1325 28.9819 22.7318 28.7204 23.1739 28.2703L29.4143 21.9168C30.166 21.1525 30.1854 19.9326 29.4583 19.1447C28.7313 18.3569 27.5138 18.2785 26.6917 18.9666L24.136 21.1058L23.986 20.1867C23.949 19.9665 24.0184 19.7418 24.1729 19.5807L26.5171 17.1991C26.9655 16.7446 27.1184 16.0756 26.9116 15.4714C26.7279 14.8919 26.2325 14.4661 25.632 14.3714L22.3623 13.8763C22.1634 13.8432 21.9936 13.7141 21.9083 13.5313L20.4337 10.4216C20.1808 9.85733 19.6201 9.49426 19.0019 9.49426C18.3835 9.49426 17.8229 9.85733 17.57 10.4216L16.0979 13.5253C16.013 13.7103 15.8421 13.8413 15.6414 13.8753L12.3727 14.3703C11.7716 14.4644 11.2754 14.8904 11.0916 15.4704C10.8849 16.0738 11.0373 16.7423 11.4852 17.1965L13.8293 19.5757C13.9826 19.7352 14.0525 19.9571 14.0183 20.1757L13.9449 20.6123C13.6319 20.5363 13.3109 20.4984 12.9888 20.4992C10.9731 20.4992 7.81242 20.9808 3.64711 25.146C2.67796 26.1146 0.212806 28.0898 0.187784 28.1092C0.0218937 28.2419 -0.0420951 28.4649 0.0282223 28.6653C0.0985397 28.8657 0.287869 28.9999 0.500287 28.9998ZM14.5428 18.8781L12.1961 16.4989C12.0148 16.3113 11.9546 16.0376 12.0406 15.7913C12.1049 15.5683 12.2921 15.4024 12.5212 15.3653L15.7919 14.8703C16.3179 14.7842 16.7684 14.4461 16.998 13.9652L18.4736 10.8545C18.5608 10.6394 18.7698 10.4986 19.0019 10.4986C19.234 10.4986 19.4429 10.6393 19.5301 10.8545L21.0082 13.9717C21.2382 14.4504 21.6876 14.7865 22.2118 14.8718L25.4836 15.3668C25.712 15.4044 25.8984 15.57 25.9626 15.7924C26.0477 16.0385 25.9872 16.3117 25.8061 16.4989L23.4604 18.8796C23.0834 19.2682 22.9121 19.8121 22.9984 20.3467L23.2484 21.8518L22.6259 22.3728C22.2283 21.8202 21.5875 21.4946 20.9068 21.4993H15.8124C15.7088 21.503 15.607 21.4708 15.5244 21.4083C15.3291 21.2482 15.119 21.1072 14.8968 20.9872L15.0054 20.3422C15.0904 19.8085 14.919 19.266 14.5428 18.8781Z"
          fill="white"></path>
</svg>